<?xml version="1.0" encoding="UTF-8"?>
<svg xmlns="http://www.w3.org/2000/svg" viewBox="44.07 46.32 1364.70 1416.36" width="1365" height="1416">
  <defs>
    <linearGradient id="zentivy" x1="94.62" y1="1412.14" x2="1358.23" y2="96.86" gradientUnits="userSpaceOnUse">
      <stop offset="0" stop-color="#6B0AAC"/>
      <stop offset="0.5" stop-color="#8A1AD8"/>
      <stop offset="1" stop-color="#B44DF7"/>
    </linearGradient>
  </defs>
  <path d="M0 0 C2.872332 -0.001155 5.744664 -0.002744 8.616995 -0.004727 C16.446143 -0.008873 24.27528 -0.006851 32.104428 -0.003741 C40.572905 -0.001468 49.04138 -0.004976 57.509857 -0.007721 C74.075306 -0.012157 90.64075 -0.011212 107.206199 -0.008308 C120.676505 -0.006046 134.14681 -0.005746 147.617117 -0.006832 C149.537721 -0.006985 151.458325 -0.007139 153.437129 -0.007296 C157.33941 -0.007616 161.24169 -0.00794 165.143971 -0.008269 C201.698745 -0.011118 238.253516 -0.007847 274.80829 -0.002469 C306.135841 0.001998 337.463388 0.001224 368.790939 -0.003387 C405.214456 -0.008746 441.637971 -0.010842 478.061488 -0.007775 C481.949955 -0.007457 485.838422 -0.007142 489.726889 -0.006832 C491.63983 -0.006678 493.552772 -0.006524 495.523682 -0.006365 C508.967528 -0.005503 522.411373 -0.006954 535.855219 -0.009312 C552.253708 -0.012124 568.652192 -0.011341 585.050681 -0.006031 C593.40842 -0.003413 601.766151 -0.002356 610.12389 -0.00568 C617.790653 -0.008683 625.457401 -0.006984 633.124162 -0.001703 C637.177086 -0.000075 641.230011 -0.0033 645.282934 -0.00676 C700.457015 0.051647 753.212826 5.963363 799.872726 38.126984 C801.016125 38.905577 802.159523 39.684171 803.33757 40.486359 C856.791617 77.579333 890.172712 134.180442 899.872726 198.126984 C900.212797 200.152262 900.552868 202.17754 900.903244 204.264191 C902.479577 216.240905 902.19797 228.306773 902.208664 240.365265 C902.215321 242.990295 902.221978 245.615324 902.228836 248.319901 C902.240764 253.864742 902.244522 259.409522 902.243332 264.954376 C902.24313 271.985844 902.270367 279.016904 902.304876 286.048276 C902.332757 292.841443 902.331302 299.634541 902.333664 306.427765 C902.348035 308.915117 902.362406 311.402469 902.377213 313.965195 C902.270523 355.441943 891.973043 395.876595 873.872726 433.126984 C873.211437 434.502413 872.550148 435.877843 871.86882 437.294952 C856.429497 467.909929 834.029011 494.950525 811.74382 520.78714 C808.88752 524.109775 806.065542 527.459189 803.247726 530.814484 C799.81973 534.877841 796.331571 538.818495 792.747726 542.751984 C789.631077 546.188289 786.599163 549.704681 783.685226 553.314484 C778.521138 559.55163 773.03453 565.373781 767.466476 571.248077 C763.038591 576.027306 758.972793 581.065964 754.872726 586.126984 C752.559421 588.480174 750.227764 590.815558 747.872726 593.126984 C744.535511 596.856813 741.278763 600.647479 738.044601 604.466827 C732.534939 610.952448 726.945838 617.156806 720.872726 623.126984 C718.524036 625.780134 716.191873 628.44797 713.872726 631.126984 C710.539393 634.79365 707.20606 638.460317 703.872726 642.126984 C702.738351 643.426359 701.603976 644.725734 700.435226 646.064484 C696.591172 650.448054 692.658254 654.745059 688.71257 659.03714 C677.691054 671.028913 677.691054 671.028913 672.622726 676.876984 C669.211927 680.742557 665.718203 684.498438 662.185226 688.251984 C657.663548 693.073836 653.262448 697.951809 648.997726 703.001984 C643.188182 709.86359 637.032936 716.356685 630.841476 722.873077 C625.999708 728.062729 621.389983 733.42767 616.77507 738.81839 C613.000432 743.121376 608.949675 747.111807 604.872726 751.126984 C602.518632 753.77534 600.185524 756.442487 597.872726 759.126984 C594.872726 762.460317 591.872726 765.79365 588.872726 769.126984 C587.676476 770.508859 586.480226 771.890734 585.247726 773.314484 C581.920637 777.072862 578.421051 780.578659 574.872726 784.126984 C573.800226 785.364484 572.727726 786.601984 571.622726 787.876984 C568.707692 791.180689 565.631329 794.342319 562.497726 797.439484 C557.228983 802.766769 552.582406 808.309145 547.872726 814.126984 C545.559421 816.480174 543.227764 818.815558 540.872726 821.126984 C538.536086 823.790753 536.203397 826.45799 533.872726 829.126984 C531.711837 831.465668 529.54463 833.798524 527.372726 836.126984 C522.782017 841.053855 518.270252 846.025854 513.872726 851.126984 C512.614601 852.529484 511.356476 853.931984 510.060226 855.376984 C504.60606 861.79365 504.60606 861.79365 505.872726 868.126984 C511.280965 870.290279 514.656981 870.377423 520.448334 870.37854 C521.446889 870.381231 521.446889 870.381231 526.500183 870.394852 C527.597535 870.39279 527.597535 870.39279 533.150803 870.382355 C535.46038 870.385975 537.769957 870.389596 540.149521 870.393326 C545.179309 870.400233 550.209105 870.402723 555.238897 870.401379 C563.215048 870.400415 571.191111 870.412913 579.167236 870.430359 C601.851361 870.477345 624.53548 870.501291 647.21965 870.507843 C659.744093 870.511613 672.268435 870.529806 684.792835 870.562937 C691.410073 870.579731 698.027092 870.586674 704.644354 870.579998 C712.055507 870.572877 719.46625 870.590319 726.877365 870.612823 C729.029561 870.604651 731.181756 870.596479 733.39917 870.588058 C804.217155 870.967663 869.507549 903.476303 910.872726 961.126984 C911.291672 961.698038 911.291672 961.698038 913.411789 964.587921 C932.91134 992.344612 944.264528 1023.842556 949.872726 1057.126984 C950.031281 1057.985499 950.031281 1057.985499 950.833664 1062.330109 C961.71692 1131.623502 945.825586 1205.45452 896.872726 1257.126984 C895.994875 1258.067999 895.117023 1259.009015 894.21257 1259.978546 C847.826354 1308.300123 783.243044 1315.298965 719.924835 1315.253967 C716.383463 1315.255121 712.84209 1315.25671 709.300718 1315.258695 C699.608267 1315.262857 689.915825 1315.260811 680.223374 1315.257708 C669.754806 1315.255442 659.28624 1315.25894 648.817673 1315.261688 C628.323116 1315.266132 607.828564 1315.265176 587.334007 1315.262276 C570.671417 1315.260016 554.008829 1315.259712 537.346239 1315.260799 C534.973133 1315.260953 532.600028 1315.261106 530.155009 1315.261264 C525.333739 1315.261583 520.512469 1315.261908 515.691199 1315.262236 C470.492722 1315.265087 425.294248 1315.261811 380.095772 1315.256436 C341.342467 1315.25197 302.589166 1315.252743 263.835861 1315.257355 C218.808052 1315.262711 173.780245 1315.26481 128.752436 1315.261742 C123.946932 1315.261424 119.141428 1315.26111 114.335924 1315.260799 C111.971688 1315.260645 109.607452 1315.260491 107.171573 1315.260332 C90.539246 1315.25947 73.906921 1315.260923 57.274595 1315.263279 C36.990108 1315.266089 16.705624 1315.265313 -3.578863 1315.259998 C-13.921466 1315.257377 -24.264062 1315.256329 -34.606665 1315.259647 C-44.088247 1315.262643 -53.569816 1315.260963 -63.051397 1315.25567 C-66.467799 1315.25456 -69.884203 1315.255106 -73.300604 1315.257546 C-123.023196 1315.290313 -169.429499 1313.195016 -214.127274 1289.126984 C-214.733777 1288.802784 -214.733777 1288.802784 -217.803055 1287.16214 C-229.822227 1280.528608 -240.060809 1272.398728 -250.127274 1263.126984 C-251.509149 1261.951359 -252.891024 1260.775734 -254.314774 1259.564484 C-258.297662 1255.973355 -261.676479 1252.232239 -265.127274 1248.126984 C-266.694774 1246.332609 -268.262274 1244.538234 -269.877274 1242.689484 C-309.299805 1194.857607 -319.83601 1128.129182 -299.127274 1070.126984 C-283.121723 1029.663207 -257.397863 1000.202635 -226.939774 969.814484 C-225.244012 968.114855 -223.54825 966.415226 -221.801102 964.664093 C-220.162059 963.026339 -218.523016 961.388585 -216.834305 959.701202 C-215.354219 958.222245 -213.874134 956.743287 -212.349197 955.219513 C-208.384266 951.376099 -204.295427 947.746717 -200.127274 944.126984 C-198.642274 942.641984 -197.157274 941.156984 -195.627274 939.626984 C-191.588696 935.588406 -187.438818 931.867883 -183.127274 928.126984 C-175.280311 921.053224 -167.688787 913.779033 -160.295242 906.232452 C-158.076148 904.057138 -155.778464 901.960484 -153.428055 899.927765 C-148.098042 895.217409 -143.120068 890.187799 -138.127274 885.126984 C-131.978526 878.894466 -125.772243 872.834403 -119.127274 867.126984 C-110.269538 859.002115 -101.599221 850.715356 -93.189774 842.126984 C-90.956783 839.939564 -88.641908 837.834836 -86.283524 835.783234 C-81.868672 831.899492 -77.754397 827.814357 -73.627274 823.626984 C-68.298547 818.220465 -62.877266 813.082073 -57.127274 808.126984 C-51.064202 802.643734 -45.095791 797.095502 -39.314774 791.314484 C-36.709274 788.708984 -34.030863 786.172045 -31.252274 783.751984 C-27.931382 780.833625 -24.753384 777.753095 -21.627274 774.626984 C-17.241921 770.241631 -12.818627 766.168765 -8.127274 762.126984 C-2.074899 756.660323 3.884028 751.171397 9.622726 745.376984 C12.561408 742.438302 15.548037 739.540239 18.685226 736.814484 C22.583648 733.381545 26.216478 729.814316 29.872726 726.126984 C34.720955 721.242842 39.65764 716.619982 44.872726 712.126984 C54.217964 703.611935 63.252472 694.830237 72.11882 685.81839 C75.910701 682.089642 79.86106 678.616276 83.872726 675.126984 C85.522726 673.476984 87.172726 671.826984 88.872726 670.126984 C93.085056 665.914654 97.373387 662.021934 101.872726 658.126984 C108.287547 652.330258 114.600704 646.458162 120.685226 640.314484 C124.956839 636.042872 129.322921 632.089717 133.872726 628.126984 C135.357726 626.641984 136.842726 625.156984 138.372726 623.626984 C142.409522 619.590188 146.550091 615.8511 150.872726 612.126984 C155.694716 607.847468 160.438549 603.561161 164.997726 599.001984 C168.815118 595.184592 172.807268 591.676193 176.872726 588.126984 C178.027726 586.971984 179.182726 585.816984 180.372726 584.626984 C184.064741 580.934969 187.932697 577.553096 191.872726 574.126984 C197.221126 569.306293 202.530733 564.468977 207.622726 559.376984 C209.874269 557.125441 212.21649 554.962389 214.622726 552.876984 C217.98192 549.912989 221.204963 546.794747 224.372726 543.626984 C228.759136 539.240574 233.185309 535.175208 237.872726 531.126984 C246.558956 523.331033 254.862411 515.207234 263.048508 506.888702 C266.864139 503.135431 270.836956 499.64043 274.872726 496.126984 C276.687726 494.311984 278.502726 492.496984 280.372726 490.626984 C284.758079 486.241631 289.181373 482.168765 293.872726 478.126984 C299.75403 472.808783 305.51588 467.48383 311.122726 461.876984 C315.242263 457.757447 319.483228 453.950095 323.872726 450.126984 C325.130851 448.848234 326.388976 447.569484 327.685226 446.251984 C331.872726 442.126984 331.872726 442.126984 336.872726 438.064484 C356.699887 421.748383 356.699887 421.748383 361.872726 413.126984 C360.872726 408.126984 360.872726 408.126984 355.872726 406.126984 C351.723346 405.896463 347.573842 405.667765 343.423508 405.455109 C327.461142 404.304174 313.005144 399.76618 300.872726 389.126984 C299.697101 388.116359 298.521476 387.105734 297.310226 386.064484 C282.753646 369.390582 278.127111 348.263245 284.872726 327.126984 C294.345218 305.024502 311.261009 295.459771 333.845383 289.947296 C336.224992 289.360128 338.604601 288.77296 341.05632 288.167999 C342.332331 287.857738 343.608342 287.547477 344.923019 287.227814 C350.522255 285.865994 356.116089 284.482555 361.710342 283.100433 C364.783439 282.341251 367.85679 281.583102 370.930374 280.825897 C389.141182 276.334665 407.321155 271.722028 425.502762 267.114288 C538.204513 238.558436 538.204513 238.558436 577.872726 229.126984 C579.788273 228.656476 581.70382 228.185968 583.677414 227.701202 C604.736132 222.798733 622.841145 223.361884 639.622726 238.376984 C652.760642 253.060536 655.86763 269.069892 650.314133 288.013702 C645.140929 302.77626 637.677451 316.749076 630.892258 330.814484 C627.166825 338.602711 623.566642 346.443226 619.986008 354.298859 C616.132796 362.749818 612.25282 371.188342 608.372726 379.626984 C603.701212 389.791434 599.031703 399.956778 594.372726 410.126984 C584.474989 431.726112 574.574983 453.323775 564.564377 474.87088 C555.073681 495.301357 545.620233 515.747075 536.728195 536.447296 C527.203033 558.468991 518.517876 576.997954 492.872726 582.126984 C472.681381 583.189686 457.205164 576.203197 444.872726 560.126984 C437.721006 547.730669 436.419297 536.065888 436.247726 522.064484 C435.978802 506.339135 435.978802 506.339135 434.872726 504.126984 C425.810898 504.126984 424.215468 506.940853 417.872726 513.126984 C416.552726 514.261359 415.232726 515.395734 413.872726 516.564484 C410.780517 519.318482 407.800718 522.198992 404.872726 525.126984 C400.662209 529.337501 396.355736 533.21753 391.872726 537.126984 C389.382254 539.427303 386.903342 541.740192 384.435226 544.064484 C383.054641 545.363859 381.674055 546.663234 380.251633 548.001984 C378.806594 549.363234 377.361555 550.724484 375.872726 552.126984 C374.376125 553.529484 372.879523 554.931984 371.33757 556.376984 C369.864172 557.758859 368.390773 559.140734 366.872726 560.564484 C365.532101 561.82132 364.191476 563.078156 362.810226 564.373077 C360.042522 567.011732 357.311051 569.688659 354.607101 572.392609 C350.834282 576.165428 346.902364 579.63068 342.872726 583.126984 C334.55745 590.677637 326.365573 598.351974 318.193039 606.056671 C301.483239 621.799539 301.483239 621.799539 293.685226 628.751984 C288.854832 633.143251 284.272198 637.711976 279.68132 642.34964 C276.21755 645.77487 272.541802 648.923823 268.872726 652.126984 C267.057726 653.941984 265.242726 655.756984 263.372726 657.626984 C258.986317 662.013393 254.560144 666.078759 249.872726 670.126984 C241.66548 677.513505 233.789666 685.172739 226.017258 693.013702 C222.440267 696.555145 218.667746 699.821644 214.872726 703.126984 C212.861798 705.115995 210.862776 707.117083 208.872726 709.126984 C204.362346 713.676683 199.718136 717.93245 194.872726 722.126984 C186.082337 730.154784 177.526208 738.37548 169.189133 746.873077 C166.892223 749.126701 164.517781 751.302948 162.08757 753.41214 C157.128233 757.783159 152.518516 762.424538 147.872726 767.126984 C142.038874 773.031981 136.167036 778.717811 129.872726 784.126984 C121.834392 791.199108 114.270245 798.642899 106.747726 806.251984 C99.962584 813.114671 93.185235 819.820928 85.872726 826.126984 C83.518836 828.439577 81.184945 830.772725 78.872726 833.126984 C74.025983 838.009743 69.104304 842.654829 63.872726 847.126984 C55.821944 854.363642 48.102018 861.828787 40.513351 869.548859 C38.084518 871.935996 35.582066 874.250433 33.013351 876.486359 C28.25112 880.673528 23.827553 885.114675 19.372726 889.626984 C13.706986 895.365831 7.979802 900.862475 1.872726 906.126984 C-0.658841 908.448667 -3.179837 910.781933 -5.689774 913.126984 C-6.928563 914.281984 -8.167352 915.436984 -9.44368 916.626984 C-11.861362 918.924167 -14.245848 921.256908 -16.592117 923.626984 C-19.007446 926.018292 -21.504364 928.329205 -24.064774 930.564484 C-28.276418 934.257772 -32.197703 938.136014 -36.127274 942.126984 C-41.287311 947.367647 -46.560596 952.321418 -52.127274 957.126984 C-63.145243 967.085029 -73.622157 977.565662 -84.060867 988.123077 C-88.298412 992.308347 -92.629837 996.22983 -97.127274 1000.126984 C-99.314283 1002.273115 -101.481952 1004.43918 -103.627274 1006.626984 C-108.277821 1011.369622 -113.107383 1015.777391 -118.127274 1020.126984 C-128.897359 1029.840922 -139.203661 1040.043929 -149.502274 1050.251984 C-150.785696 1051.514056 -152.069119 1052.776129 -153.391434 1054.076447 C-177.779051 1078.376954 -193.75106 1105.897551 -187.939774 1141.376984 C-180.56256 1168.850743 -163.650873 1183.776962 -137.127274 1192.126984 C-124.959853 1195.094647 -112.712615 1195.252244 -100.238806 1195.255618 C-98.774974 1195.257371 -97.311143 1195.259124 -95.802953 1195.26093 C-90.895456 1195.265584 -85.987988 1195.263126 -81.08049 1195.260696 C-77.527384 1195.262565 -73.974278 1195.264865 -70.421172 1195.267562 C-60.654876 1195.273684 -50.888589 1195.273546 -41.122292 1195.272367 C-30.590361 1195.272163 -20.058434 1195.277681 -9.526505 1195.282425 C11.108305 1195.290734 31.743111 1195.29348 52.377921 1195.294037 C69.149031 1195.294512 85.92014 1195.296566 102.69125 1195.299738 C150.23012 1195.308545 197.768988 1195.313157 245.307859 1195.312407 C247.871135 1195.312368 250.434412 1195.312328 253.075363 1195.312286 C254.358564 1195.312266 254.358564 1195.312266 260.85234 1195.312162 C302.451518 1195.311756 344.050688 1195.321327 385.649864 1195.335425 C428.3535 1195.349783 471.057132 1195.356695 513.76077 1195.355831 C537.739678 1195.355499 561.718577 1195.358254 585.697483 1195.369009 C606.1124 1195.378107 626.527302 1195.380295 646.94222 1195.3735 C657.358464 1195.370231 667.774681 1195.370191 678.190922 1195.378853 C687.728481 1195.386703 697.265992 1195.385302 706.80355 1195.376569 C710.251672 1195.37503 713.699798 1195.376862 717.147915 1195.382429 C782.074528 1195.480289 782.074528 1195.480289 806.872726 1173.126984 C808.233976 1171.910109 809.595226 1170.693234 810.997726 1169.439484 C837.691232 1139.732195 837.072468 1096.064062 826.638351 1059.841827 C822.477202 1047.425929 815.9113 1037.367907 807.872726 1027.126984 C806.820851 1025.765734 805.768976 1024.404484 804.685226 1023.001984 C782.693084 1000.649314 752.32071 993.783657 721.895065 993.868698 C720.345315 993.865022 718.795565 993.861347 717.198852 993.85756 C712.037375 993.847628 706.876007 993.851721 701.714523 993.855743 C698.00123 993.851354 694.287937 993.846051 690.574646 993.839905 C682.593479 993.828424 674.612339 993.822947 666.631165 993.822023 C654.007518 993.82008 641.383927 993.802011 628.7603 993.781265 C597.409546 993.732121 566.058777 993.701185 534.707993 993.679962 C510.333326 993.663438 485.958706 993.640627 461.584071 993.596941 C449.03858 993.575172 436.493178 993.567107 423.94767 993.569334 C416.140512 993.567666 408.333411 993.553612 400.526274 993.536121 C396.910343 993.530526 393.2944 993.530032 389.678469 993.535059 C384.735642 993.541209 379.793182 993.528952 374.850388 993.512253 C374.138218 993.515359 374.138218 993.515359 370.534206 993.531076 C348.058218 993.393092 328.540011 986.43931 315.060226 967.876984 C302.838089 945.829206 303.678798 926.958048 315.872726 905.126984 C321.476284 897.762309 327.6502 890.971762 333.872726 884.126984 C338.04644 879.412234 342.13326 874.633653 346.185226 869.814484 C349.716844 865.625821 353.304847 861.555144 356.997726 857.501984 C360.173587 854.000394 363.263527 850.418286 366.247726 846.751984 C370.645589 841.403232 375.247132 836.367375 379.970383 831.310577 C382.513053 828.521511 384.923967 825.613492 387.310226 822.689484 C391.909304 817.082389 396.76478 811.837884 401.728195 806.556671 C405.983776 801.91518 409.889253 797.00228 413.872726 792.126984 C416.519268 789.440343 419.184468 786.771883 421.872726 784.126984 C425.206012 780.401546 428.457706 776.611745 431.708664 772.814484 C437.33274 766.278027 443.023228 759.842712 448.935226 753.564484 C454.476454 747.679233 459.774611 741.638455 464.997726 735.470734 C467.786777 732.226946 470.650721 729.075284 473.560226 725.939484 C477.017814 722.156476 480.37968 718.282948 483.622726 714.314484 C487.195581 709.9535 490.858354 706.067016 494.872726 702.126984 C497.221417 699.473833 499.55358 696.805998 501.872726 694.126984 C504.872726 690.79365 507.872726 687.460317 510.872726 684.126984 C511.986476 682.848234 513.100226 681.569484 514.247726 680.251984 C517.19783 676.894969 520.21351 673.595671 523.247726 670.314484 C526.858091 666.397486 530.244687 662.448138 533.622726 658.314484 C537.195581 653.9535 540.858354 650.067016 544.872726 646.126984 C547.215614 643.468707 549.547635 640.800839 551.872726 638.126984 C553.701277 636.12261 555.534964 634.122914 557.372726 632.126984 C560.412326 628.823072 563.416076 625.506013 566.372726 622.126984 C569.218751 618.874385 572.1302 615.679121 575.060226 612.501984 C580.147066 606.976744 585.027479 601.29688 589.892258 595.576202 C592.721318 592.302205 595.617875 589.111642 598.560226 585.939484 C602.017814 582.156476 605.37968 578.282948 608.622726 574.314484 C612.195581 569.9535 615.858354 566.067016 619.872726 562.126984 C622.218568 559.471314 624.550559 556.80338 626.872726 554.126984 C630.20606 550.460317 633.539393 546.79365 636.872726 543.126984 C639.20896 540.462858 641.542394 537.796273 643.872726 535.126984 C648.711928 529.718464 653.585888 524.344449 658.497726 519.001984 C661.425555 515.801798 664.340421 512.588694 667.185226 509.314484 C670.572958 505.467398 674.047069 501.734233 677.560226 498.001984 C682.12118 493.137609 686.563273 488.215254 690.872726 483.126984 C697.292006 475.556838 704.062613 468.344798 710.872726 461.126984 C718.521734 453.011784 725.888526 444.83193 732.872726 436.126984 C733.687414 435.178234 733.687414 435.178234 737.810226 430.376984 C770.327197 391.266014 780.003532 341.454282 780.040695 291.798859 C780.044024 290.208015 780.047352 288.61717 780.050781 286.978119 C780.055808 283.636956 780.058191 280.295787 780.058029 276.95462 C780.060215 271.903916 780.078415 266.853431 780.097336 261.802765 C780.188448 210.308209 772.358979 160.004321 723.903976 131.81839 C691.495208 114.944139 655.692139 116.968342 620.077408 117 C617.302304 116.998844 614.5272 116.997254 611.752097 116.995273 C604.215241 116.991141 596.678398 116.993142 589.141542 116.996259 C580.979375 116.998538 572.817211 116.995021 564.655045 116.992279 C548.703242 116.98785 532.751444 116.988785 516.799641 116.991692 C503.832818 116.993956 490.865997 116.994254 477.899174 116.993168 C476.049097 116.993015 474.19902 116.992861 472.29288 116.992704 C468.533843 116.992384 464.774806 116.99206 461.01577 116.991731 C425.83276 116.988885 390.649754 116.99215 355.466745 116.997531 C325.300476 117.002002 295.13421 117.001219 264.967941 116.996613 C229.889643 116.991258 194.811347 116.989155 159.733048 116.992225 C155.991406 116.992543 152.249764 116.992858 148.508121 116.993168 C146.667396 116.993322 144.82667 116.993476 142.930165 116.993635 C129.978934 116.994498 117.027704 116.993044 104.076473 116.990688 C88.294184 116.987881 72.511899 116.988649 56.72961 116.993969 C48.682693 116.996592 40.635784 116.997634 32.588867 116.99432 C25.215706 116.991329 17.84256 116.992996 10.4694 116.998297 C6.554953 116.999934 2.640504 116.996689 -1.273943 116.99324 C-51.934636 117.049366 -98.681293 126.767367 -126.127274 174.126984 C-150.740693 219.12683 -148.082103 272.612792 -124.127274 317.126984 C-102.013006 350.989456 -65.599827 369.157942 -25.51741 369.284698 C-23.180733 369.294961 -20.844055 369.305223 -18.436569 369.315796 C-15.918799 369.323097 -13.401028 369.330399 -10.806961 369.337921 C-6.838927 369.358804 -2.870893 369.379703 1.097136 369.401621 C10.869304 369.454677 20.641474 369.498954 30.413742 369.528351 C35.898911 369.545292 41.38394 369.570026 46.869034 369.60321 C52.028746 369.634098 57.188542 369.65358 62.348343 369.660278 C83.36679 369.808097 102.329732 371.589201 118.872726 386.126984 C120.213351 387.302609 121.553976 388.478234 122.935226 389.689484 C137.36724 405.954133 143.267352 427.237269 136.747726 448.251984 C134.228878 454.275317 131.831118 458.981075 127.872726 464.126984 C127.377726 464.786984 127.377726 464.786984 124.872726 468.126984 C109.118389 483.881321 90.111149 487.159588 68.497726 487.689484 C67.646663 487.71035 67.646663 487.71035 63.339767 487.815948 C46.164256 488.1821 28.988857 488.237025 11.810226 488.251984 C11.134204 488.253278 11.134204 488.253278 7.71312 488.259827 C-69.076958 488.37562 -138.120073 478.391199 -195.127274 422.126984 C-196.336414 420.937179 -197.545555 419.747374 -198.791336 418.521515 C-229.449513 387.324846 -249.78694 346.588082 -259.127274 304.126984 C-259.61325 302.090265 -260.099227 300.053546 -260.59993 297.955109 C-264.14265 280.705319 -264.620592 263.821716 -264.689774 246.251984 C-264.704437 243.948429 -264.7191 241.644874 -264.734207 239.271515 C-264.549706 208.20425 -257.475673 178.942805 -246.127274 150.126984 C-245.545906 148.641984 -244.964539 147.156984 -244.365555 145.626984 C-236.623668 127.08676 -225.875362 109.631415 -213.127274 94.126984 C-211.724774 92.353234 -210.322274 90.579484 -208.877274 88.751984 C-153.793418 23.521102 -83.554591 -0.071146 0 0 Z " transform="translate(404.1272735595703,96.87301635742188)" fill="url(#zentivy)"/>
</svg>
